<?xml version="1.0" encoding="UTF-8"?>
<svg xmlns="http://www.w3.org/2000/svg" xmlns:xlink="http://www.w3.org/1999/xlink" width="22pt" height="22pt" viewBox="0 0 22 22" version="1.1">
<g id="surface1">
<path style=" stroke:none;fill-rule:nonzero;fill:rgb(0%,0%,0%);fill-opacity:1;" d="M 22 5.480469 L 22 5.132812 C 22 3.824219 20.9375 2.761719 19.628906 2.761719 L 2.371094 2.761719 C 1.0625 2.761719 0 3.824219 0 5.132812 L 0 16.867188 C 0 18.175781 1.0625 19.238281 2.371094 19.238281 L 19.628906 19.238281 C 20.9375 19.238281 22 18.175781 22 16.867188 Z M 2.371094 4.050781 L 19.628906 4.050781 C 20.226562 4.050781 20.710938 4.535156 20.710938 5.132812 L 12.078125 10.886719 C 11.503906 11.269531 10.496094 11.269531 9.921875 10.886719 L 1.289062 5.132812 C 1.289062 4.535156 1.773438 4.050781 2.371094 4.050781 Z M 19.628906 17.949219 L 2.371094 17.949219 C 1.773438 17.949219 1.289062 17.464844 1.289062 16.867188 L 1.289062 6.679688 L 9.207031 11.960938 C 9.710938 12.296875 10.355469 12.460938 11 12.460938 C 11.644531 12.460938 12.289062 12.292969 12.792969 11.960938 L 20.710938 6.679688 L 20.710938 16.867188 C 20.710938 17.464844 20.226562 17.949219 19.628906 17.949219 Z M 19.628906 17.949219 "/>
</g>
</svg>
