<?xml version="1.0" encoding="UTF-8"?>
<svg xmlns="http://www.w3.org/2000/svg" xmlns:xlink="http://www.w3.org/1999/xlink" width="22pt" height="22pt" viewBox="0 0 22 22" version="1.1">
<g id="surface1">
<path style=" stroke:none;fill-rule:nonzero;fill:rgb(0%,0%,0%);fill-opacity:1;" d="M 14.519531 1.761719 L 14.519531 4.21875 L 11 0.699219 L 0.570312 11.128906 L 1.191406 11.75 L 1.761719 11.183594 L 1.761719 21.558594 L 20.238281 21.558594 L 20.238281 11.183594 L 20.808594 11.75 L 21.429688 11.128906 L 18.480469 8.179688 L 18.480469 1.761719 Z M 15.398438 2.640625 L 17.601562 2.640625 L 17.601562 7.296875 L 15.398438 5.097656 Z M 8.800781 20.679688 L 8.800781 13.640625 L 13.199219 13.640625 L 13.199219 20.679688 Z M 19.359375 20.679688 L 14.078125 20.679688 L 14.078125 12.761719 L 7.921875 12.761719 L 7.921875 20.679688 L 2.640625 20.679688 L 2.640625 10.300781 L 11 1.941406 L 19.359375 10.300781 Z M 19.359375 20.679688 "/>
</g>
</svg>
