<?xml version="1.0" encoding="UTF-8"?>
<svg xmlns="http://www.w3.org/2000/svg" xmlns:xlink="http://www.w3.org/1999/xlink" width="22pt" height="22pt" viewBox="0 0 22 22" version="1.1">
<g id="surface1">
<path style=" stroke:none;fill-rule:nonzero;fill:rgb(0%,0%,0%);fill-opacity:1;" d="M 11 0 C 6.542969 0 2.933594 3.613281 2.933594 8.066406 C 2.933594 12.402344 10.398438 21.484375 10.71875 21.867188 C 10.785156 21.953125 10.890625 22 11 22 C 11.109375 22 11.214844 21.953125 11.28125 21.867188 C 11.601562 21.484375 19.066406 12.402344 19.066406 8.066406 C 19.066406 3.613281 15.457031 0 11 0 Z M 11 21.050781 C 9.621094 19.328125 3.667969 11.6875 3.667969 8.066406 C 3.671875 4.019531 6.953125 0.738281 11 0.734375 C 15.046875 0.738281 18.328125 4.019531 18.332031 8.066406 C 18.332031 11.6875 12.378906 19.328125 11 21.050781 Z M 11 21.050781 "/>
<path style=" stroke:none;fill-rule:nonzero;fill:rgb(0%,0%,0%);fill-opacity:1;" d="M 15.992188 6.675781 L 11.222656 3.007812 C 11.09375 2.90625 10.90625 2.90625 10.777344 3.007812 L 6.007812 6.675781 C 5.847656 6.800781 5.820312 7.03125 5.941406 7.191406 C 6.011719 7.28125 6.121094 7.332031 6.234375 7.332031 L 7.332031 7.332031 L 7.332031 11.367188 C 7.332031 11.570312 7.496094 11.734375 7.699219 11.734375 L 14.300781 11.734375 C 14.503906 11.734375 14.667969 11.570312 14.667969 11.367188 L 14.667969 7.332031 L 15.765625 7.332031 C 15.96875 7.332031 16.132812 7.167969 16.132812 6.964844 C 16.132812 6.851562 16.082031 6.746094 15.992188 6.675781 Z M 11.734375 11 L 10.265625 11 L 10.265625 8.800781 L 11.734375 8.800781 Z M 14.300781 6.601562 C 14.097656 6.601562 13.933594 6.765625 13.933594 6.964844 L 13.933594 11 L 12.464844 11 L 12.464844 8.433594 C 12.464844 8.230469 12.300781 8.066406 12.101562 8.066406 L 9.898438 8.066406 C 9.699219 8.066406 9.535156 8.230469 9.535156 8.433594 L 9.535156 11 L 8.066406 11 L 8.066406 6.964844 C 8.066406 6.765625 7.902344 6.601562 7.699219 6.601562 L 7.3125 6.601562 L 11 3.761719 L 14.6875 6.601562 Z M 14.300781 6.601562 "/>
</g>
</svg>
